
    <svg
      width="20"
      height="20"
      viewBox="0 0 20 20"
      fill="none"
      xmlns="http://www.w3.org/2000/svg"
    >
      <path
        fillRule="evenodd"
        clipRule="evenodd"
        d="M5.86966 0.122729C4.24177 0.196179 2.83081 0.594176 1.69149 1.72869C0.548195 2.86916 0.155141 4.28571 0.0815084 5.89666C0.0357364 6.90213 -0.231914 14.4983 0.544216 16.4904C1.06761 17.8343 2.09844 18.8677 3.45468 19.3927C4.08752 19.6389 4.80994 19.8055 5.86966 19.8542C14.7305 20.2552 18.0151 20.0369 19.4002 16.4904C19.6459 15.8591 19.8151 15.1373 19.8619 14.0802C20.2669 5.19671 19.7962 3.27115 18.2519 1.72869C17.027 0.506826 15.5862 -0.324921 5.86966 0.122729ZM5.95123 18.0676C4.98107 18.0239 4.4547 17.8622 4.10345 17.7262C3.21986 17.3828 2.55617 16.7219 2.21487 15.8434C1.62382 14.3298 1.81985 7.14052 1.87259 5.97722C1.92433 4.83774 2.15517 3.79634 2.95916 2.99236C3.9542 1.99978 5.23978 1.51332 13.9931 1.90837C15.1354 1.95998 16.1792 2.19036 16.9852 2.99236C17.9803 3.98493 18.4738 5.2804 18.0718 14.0002C18.028 14.9679 17.8658 15.4931 17.7295 15.8434C16.829 18.1512 14.7573 18.4715 5.95123 18.0676ZM14.0897 4.68962C14.0897 5.34671 14.624 5.88103 15.2837 5.88103C15.9434 5.88103 16.4788 5.34671 16.4788 4.68962C16.4788 4.03254 15.9434 3.49871 15.2837 3.49871C14.624 3.49871 14.0897 4.03254 14.0897 4.68962ZM4.86267 9.98796C4.86267 12.8029 7.15027 15.0851 9.97219 15.0851C12.7941 15.0851 15.0817 12.8029 15.0817 9.98796C15.0817 7.17302 12.7941 4.89226 9.97219 4.89226C7.15027 4.89226 4.86267 7.17302 4.86267 9.98796ZM6.65573 9.98796C6.65573 8.16163 8.14033 6.67986 9.97219 6.67986C11.8041 6.67986 13.2887 8.16163 13.2887 9.98796C13.2887 11.8153 11.8041 13.2975 9.97219 13.2975C8.14033 13.2975 6.65573 11.8153 6.65573 9.98796Z"
        fill="#D81B13"
      />
    </svg>
